<svg version="1.2" xmlns="http://www.w3.org/2000/svg" viewBox="0 0 64 64" width="64" height="64"><style>.a{fill:#fafafa}.b{fill:#09090b}</style><path  d=""/><path fill-rule="evenodd" d="m32 64c-17.7 0-32-14.3-32-32 0-17.7 14.3-32 32-32 17.7 0 32 14.3 32 32 0 17.7-14.3 32-32 32z"/><path fill-rule="evenodd" class="a" d="m32 60c-15.5 0-28-12.5-28-28 0-15.5 12.5-28 28-28 15.5 0 28 12.5 28 28 0 15.5-12.5 28-28 28z"/><path fill-rule="evenodd" class="b" d="m32 56c-13.3 0-24-10.7-24-24 0-13.3 10.7-24 24-24 13.3 0 24 10.7 24 24 0 13.3-10.7 24-24 24z"/><path class="a" d="m42.6 26v5.8h0.4l1.8 2.1v2.7q-1.4 0-1.8 0.5-0.5 0.5-0.5 1.5v0.6q0.3-0.1 0.5-0.3l0.9 0.7 1.8 2.1q-0.2 1.7-1.2 2.6-1 0.9-2.6 0.9-1.6 0-2.9-1.4-0.9 0.6-1.4 0.9-0.5 0.3-1.7 0.6-1.3 0.3-3.7 0.3-2.4 0-4.9-0.8-2.5-0.8-4.2-2.8-1.8-2.1-1.8-5v-0.4h-0.4l-1.8-2.2v-2.6q1.6 0 2.3 0.1v-8q0-1.9 0.8-3.2 0.9-1.4 2.4-2 2.8-1.3 6.4-1.3 4.3 0 7.7 1.8 1.7 0.9 2.8 2.7 1.1 1.8 1.1 4.1zm-6.3 7q0.3-0.3 0.8-0.9h0.9q0.3 0.5 0.9 0.9 0.3-0.5 0.9-0.8v-8.3q0-1.9-1.4-3.2-1.4-1.3-3.3-1.8-1.8-0.5-4.1-0.5-2.2 0-4.1 0.5-1.8 0.5-3.2 1.8-1.3 1.3-1.3 3.2v8.3q0.5 0.4 0.8 0.8 0.4-0.2 0.8-0.9h1q0.5 0.6 0.8 0.9 0.7-0.9 1.6-1.1v-6.6q0-1.9 1-2.9 1-1 2.7-1 1.7 0 2.7 1 1 1 1 2.9v6.7q0.8 0.2 1.5 1zm-3.3-0.3v1.7q1.2 0.1 1.8 0.7 0.5 0.6 0.5 1.2 0 2-1.1 2.7-1.1 0.8-3.1 0.8-2 0-3.1-1.1-1.1-1.1-1.1-3.1 0-0.7 0.5-1.3 0.5-0.7 1.7-0.7v-0.9q-0.7 0-1.1 0.1-0.3 0-0.8 0.4-0.5 0.4-1 1.1-0.9-0.2-1.7-1.2-0.7 0.9-1.6 1.2-0.5-0.7-1-1.1-0.5-0.4-0.9-0.4-0.3-0.1-1-0.1v0.9q2.3 0 2.3 3.3 0 2 1.4 3.2 2.4 2.3 7.3 2.3 1.8 0 3-0.3 1.3-0.4 1.7-0.7 0.5-0.3 1.3-1h0.3q0.8 0.8 1.4 1.2 0.7 0.4 1.5 0.4 1.8 0 2.6-1.8-0.2 0-0.6 0-1.1 0-1.7-0.5-0.5-0.6-0.6-1.3-0.1-0.7-0.1-1.8 0-3 2.3-3v-0.9q-0.7 0-1 0.1-0.4 0-0.9 0.4-0.6 0.4-1.1 1.1-0.7-0.2-1.5-1.2-0.7 0.9-1.7 1.2-0.4-0.7-1-1.1-0.5-0.4-0.9-0.4-0.3-0.1-1-0.1zm-2.8-5.1v4.7l1.6 1.6v2.7q-0.6 0-1 0.1-0.4 0-0.8 0.3-0.4 0.3-0.4 1l0.1 0.6q0.6 0.2 1.3 0.2 2.6 0 3.1-1.5h-0.2l-1.8-2.5v-3q1.2 0 1.7 0v-6.4l-0.1-0.6q-0.2-0.1-0.9-0.1-2.6 0-2.6 2.9z"/></svg>